<?xml version="1.0" encoding="UTF-8" standalone="no"?>
<svg
   width="361px"
   height="361px"
   viewBox="-52.5 0 361 361"
   version="1.1"
   preserveAspectRatio="xMidYMid"
   id="svg112"
   sodipodi:docname="html.svg"
   inkscape:version="1.2 (1:1.2.1+202207142221+cd75a1ee6d)"
   xmlns:inkscape="http://www.inkscape.org/namespaces/inkscape"
   xmlns:sodipodi="http://sodipodi.sourceforge.net/DTD/sodipodi-0.dtd"
   xmlns="http://www.w3.org/2000/svg"
   xmlns:svg="http://www.w3.org/2000/svg">
  <defs
     id="defs116" />
  <sodipodi:namedview
     id="namedview114"
     pagecolor="#ffffff"
     bordercolor="#000000"
     borderopacity="0.25"
     inkscape:showpageshadow="2"
     inkscape:pageopacity="0.0"
     inkscape:pagecheckerboard="0"
     inkscape:deskcolor="#d1d1d1"
     showgrid="false"
     inkscape:zoom="1.6570979"
     inkscape:cx="138.19341"
     inkscape:cy="209.40223"
     inkscape:window-width="1920"
     inkscape:window-height="1052"
     inkscape:window-x="0"
     inkscape:window-y="0"
     inkscape:window-maximized="1"
     inkscape:current-layer="g110" />
  <g
     id="g110">
    <path
       d="M 275.81887,14.800721 248.53399,320.46055 125.88745,354.4622 3.5786028,320.50844 -23.677377,14.800721 Z"
       fill="#e44d26"
       id="path90"
       style="stroke-width:1.17399" />
    <path
       d="m 126.07075,328.47279 99.1044,-27.4756 23.31674,-261.200329 H 126.07075 Z"
       fill="#f16529"
       id="path92"
       style="stroke-width:1.17399" />
    <path
       d="m 73.03012,114.78528 h 53.04063 V 77.291068 H 32.054088 l 0.897496,10.05906 9.215231,103.322722 H 126.07075 V 153.17946 H 76.456623 Z"
       fill="#ebebeb"
       id="path94"
       style="stroke-width:1.17399" />
    <path
       d="M 81.47996,209.42036 H 43.842087 l 5.252871,58.87064 76.803222,21.32111 0.17257,-0.0479 v -39.0093 l -0.16431,0.0438 -41.75711,-11.27527 -2.66937,-29.90306 z"
       fill="#ebebeb"
       id="path96"
       style="stroke-width:1.17399" />
    <path
       d="m 125.94112,190.67285 h 46.16945 l -4.35208,48.62662 -41.81737,11.28683 v 39.00765 l 76.86432,-21.30295 0.56393,-6.33449 8.81065,-98.70891 0.91484,-10.06814 h -87.15374 z"
       fill="#ffffff"
       id="path106"
       style="stroke-width:1.17399" />
    <path
       d="m 125.94112,114.69363 v 0.0916 h 90.56538 l 0.75218,-8.42754 1.7083,-19.007605 0.89667,-10.059059 h -93.92253 v 37.402564 z"
       fill="#ffffff"
       id="path108"
       style="stroke-width:1.17399" />
  </g>
</svg>
